<svg xmlns="http://www.w3.org/2000/svg" width="1600" height="900" viewBox="0 0 1600 900">
  <rect width="1600" height="900" fill="rgb(0,3,76)"/>
  <!-- the noise -->
  <g fill="rgba(233,234,255,0.22)">
    <circle cx="280" cy="220" r="7"/><circle cx="420" cy="640" r="7"/><circle cx="380" cy="410" r="7"/>
    <circle cx="560" cy="250" r="7"/><circle cx="610" cy="560" r="7"/><circle cx="700" cy="180" r="7"/>
    <circle cx="760" cy="700" r="7"/><circle cx="900" cy="240" r="7"/><circle cx="1240" cy="620" r="7"/>
    <circle cx="1180" cy="200" r="7"/><circle cx="1320" cy="380" r="7"/><circle cx="1100" cy="720" r="7"/>
    <circle cx="480" cy="760" r="7"/><circle cx="1380" cy="540" r="7"/><circle cx="240" cy="540" r="7"/>
  </g>
  <!-- the signal -->
  <circle cx="860" cy="450" r="26" fill="rgb(233,234,255)"/>
  <g fill="none" stroke="rgb(99,104,218)">
    <circle cx="860" cy="450" r="80" stroke-width="6"/>
    <circle cx="860" cy="450" r="150" stroke-width="4" stroke-opacity="0.6"/>
    <circle cx="860" cy="450" r="225" stroke-width="3" stroke-opacity="0.3"/>
  </g>
</svg>
