<svg width="48" height="31" viewBox="0 0 48 31" fill="none" xmlns="http://www.w3.org/2000/svg">
<path d="M14.1993 22.0939H5.62776L3.2035 30.4862H0L9.13429 0.0428171H10.9092L20.0435 30.4862H16.6668L14.1993 22.0939ZM6.49357 19.2251H13.42L10.7793 9.97652L9.95681 5.48066H9.87023L9.04771 10.0622L6.49357 19.2251Z" fill="url(#paint0_linear_1526_25)"/>
<path d="M17.1714 0.513811H20.4182V30.4862H17.1714V0.513811Z" fill="url(#paint1_linear_1526_25)"/>
<path d="M19.916 26.5041C20.4643 26.8752 21.2291 27.232 22.2104 27.5746C23.2205 27.8886 24.3605 28.0456 25.6303 28.0456C27.2465 28.0456 28.5597 27.6602 29.5698 26.8895C30.5799 26.0902 31.0849 24.8485 31.0849 23.1644C31.0849 22.0511 30.7963 21.0806 30.2191 20.2528C29.6419 19.425 28.9204 18.6685 28.0546 17.9834C27.1888 17.2698 26.2508 16.5847 25.2407 15.9282C24.2595 15.2431 23.3359 14.5009 22.4701 13.7017C21.6043 12.8738 20.8828 11.9319 20.3056 10.8757C19.7284 9.81952 19.4398 8.54926 19.4398 7.06491C19.4398 4.66713 20.1613 2.89733 21.6043 1.75553C23.0762 0.585175 24.981 0 27.3187 0C28.7617 0 30.046 0.128453 31.1715 0.385359C32.2971 0.642265 33.2062 0.970534 33.8988 1.37017L32.8598 4.19613C32.3404 3.88214 31.59 3.59669 30.6087 3.33978C29.6563 3.08287 28.5452 2.95442 27.2754 2.95442C25.7169 2.95442 24.5625 3.33978 23.8121 4.1105C23.0618 4.85267 22.6866 5.79466 22.6866 6.93646C22.6866 7.93554 22.9752 8.82044 23.5524 9.59116C24.1296 10.3619 24.8511 11.0898 25.7169 11.7749C26.5827 12.4599 27.5062 13.1593 28.4875 13.8729C29.4976 14.558 30.4356 15.3287 31.3014 16.1851C32.1672 17.0414 32.8887 18.012 33.4659 19.0967C34.0431 20.1814 34.3317 21.4659 34.3317 22.9503C34.3317 25.4622 33.5813 27.4319 32.0806 28.8591C30.5799 30.2864 28.4586 31 25.7169 31C23.9853 31 22.5567 30.843 21.4312 30.529C20.3345 30.215 19.4542 29.8582 18.7904 29.4586L19.916 26.5041Z" fill="url(#paint2_linear_1526_25)"/>
<path d="M48 29.3301C47.2785 29.9296 46.3694 30.3577 45.2727 30.6146C44.176 30.8715 43.0216 31 41.8095 31C40.2799 31 38.8657 30.7145 37.567 30.1436C36.2683 29.5727 35.1427 28.6736 34.1903 27.4461C33.2668 26.1901 32.5453 24.5773 32.0258 22.6077C31.5063 20.6381 31.2466 18.2689 31.2466 15.5C31.2466 12.6455 31.5352 10.2334 32.1124 8.26381C32.7185 6.2942 33.5121 4.69567 34.4934 3.46823C35.4746 2.24079 36.6002 1.35589 37.87 0.813536C39.1687 0.271179 40.4963 0 41.8528 0C43.238 0 44.378 0.0999075 45.2727 0.299722C46.1962 0.499539 46.9899 0.742173 47.6537 1.02762L46.8745 3.93923C46.2972 3.62523 45.619 3.3826 44.8398 3.21133C44.0606 3.04006 43.1659 2.95442 42.1558 2.95442C41.1457 2.95442 40.1933 3.18278 39.2986 3.6395C38.4039 4.06768 37.6103 4.78131 36.9176 5.78039C36.225 6.75092 35.6766 8.03545 35.2726 9.63398C34.8686 11.2325 34.6665 13.1878 34.6665 15.5C34.6665 19.6676 35.388 22.8075 36.8311 24.9199C38.2741 27.0037 40.1933 28.0456 42.5887 28.0456C43.5699 28.0456 44.4502 27.9171 45.2294 27.6602C46.0086 27.3748 46.6724 27.0465 47.2208 26.6754L48 29.3301Z" fill="url(#paint3_linear_1526_25)"/>
<defs>
<linearGradient id="paint0_linear_1526_25" x1="5.63265" y1="-2.16852e-06" x2="50.5539" y2="30.2141" gradientUnits="userSpaceOnUse">
<stop stop-color="#041986"/>
<stop offset="1" stop-color="#6368DA"/>
</linearGradient>
<linearGradient id="paint1_linear_1526_25" x1="5.63265" y1="-2.16852e-06" x2="50.5539" y2="30.2141" gradientUnits="userSpaceOnUse">
<stop stop-color="#041986"/>
<stop offset="1" stop-color="#6368DA"/>
</linearGradient>
<linearGradient id="paint2_linear_1526_25" x1="5.63265" y1="-2.16852e-06" x2="50.5539" y2="30.2141" gradientUnits="userSpaceOnUse">
<stop stop-color="#041986"/>
<stop offset="1" stop-color="#6368DA"/>
</linearGradient>
<linearGradient id="paint3_linear_1526_25" x1="5.63265" y1="-2.16852e-06" x2="50.5539" y2="30.2141" gradientUnits="userSpaceOnUse">
<stop stop-color="#041986"/>
<stop offset="1" stop-color="#6368DA"/>
</linearGradient>
</defs>
</svg>
