<svg width="32" height="32" viewBox="0 0 32 32" fill="none" xmlns="http://www.w3.org/2000/svg">
<rect width="32" height="32" rx="8" fill="#F0F0FC"/>
<path d="M11.0996 19.4033H6.81388L5.60175 23.7348H4L8.56715 8.0221H9.4546L14.0217 23.7348H12.3334L11.0996 19.4033ZM7.24679 17.9227H10.71L9.38966 13.1492L8.9784 10.8287H8.93511L8.52385 13.1934L7.24679 17.9227Z" fill="url(#paint0_linear_1667_2)"/>
<path d="M12.5857 8.26519H14.2091V23.7348H12.5857V8.26519Z" fill="url(#paint1_linear_1667_2)"/>
<path d="M13.958 21.6796C14.2322 21.8711 14.6146 22.0552 15.1052 22.232C15.6102 22.3941 16.1802 22.4751 16.8152 22.4751C17.6233 22.4751 18.2798 22.2762 18.7849 21.8785C19.2899 21.4659 19.5425 20.825 19.5425 19.9558C19.5425 19.3812 19.3982 18.8803 19.1096 18.453C18.821 18.0258 18.4602 17.6354 18.0273 17.2818C17.5944 16.9134 17.1254 16.5599 16.6204 16.221C16.1297 15.8674 15.668 15.4843 15.2351 15.0718C14.8022 14.6446 14.4414 14.1584 14.1528 13.6133C13.8642 13.0681 13.7199 12.4125 13.7199 11.6464C13.7199 10.4088 14.0806 9.4954 14.8022 8.90608C15.5381 8.30203 16.4905 8 17.6593 8C18.3808 8 19.023 8.0663 19.5858 8.1989C20.1485 8.33149 20.6031 8.50092 20.9494 8.70718L20.4299 10.1657C20.1702 10.0037 19.795 9.85635 19.3044 9.72376C18.8282 9.59116 18.2726 9.52486 17.6377 9.52486C16.8585 9.52486 16.2812 9.72376 15.9061 10.1215C15.5309 10.5046 15.3433 10.9908 15.3433 11.5801C15.3433 12.0958 15.4876 12.5525 15.7762 12.9503C16.0648 13.3481 16.4255 13.7238 16.8585 14.0773C17.2914 14.4309 17.7531 14.7919 18.2437 15.1602C18.7488 15.5138 19.2178 15.9116 19.6507 16.3536C20.0836 16.7956 20.4443 17.2965 20.733 17.8564C21.0216 18.4162 21.1659 19.0792 21.1659 19.8453C21.1659 21.1418 20.7907 22.1584 20.0403 22.895C19.2899 23.6317 18.2293 24 16.8585 24C15.9926 24 15.2784 23.919 14.7156 23.7569C14.1672 23.5948 13.7271 23.4107 13.3952 23.2044L13.958 21.6796Z" fill="url(#paint2_linear_1667_2)"/>
<path d="M28 23.1381C27.6392 23.4475 27.1847 23.6685 26.6364 23.8011C26.088 23.9337 25.5108 24 24.9047 24C24.1399 24 23.4329 23.8527 22.7835 23.558C22.1341 23.2634 21.5714 22.7993 21.0952 22.1657C20.6334 21.5175 20.2727 20.6851 20.0129 19.6685C19.7532 18.6519 19.6233 17.4291 19.6233 16C19.6233 14.5267 19.7676 13.2818 20.0562 12.2652C20.3592 11.2486 20.7561 10.4236 21.2467 9.79005C21.7373 9.15654 22.3001 8.69982 22.935 8.41989C23.5844 8.13996 24.2482 8 24.9264 8C25.619 8 26.189 8.05157 26.6364 8.1547C27.0981 8.25783 27.4949 8.38306 27.8268 8.53039L27.4372 10.0331C27.1486 9.87109 26.8095 9.74586 26.4199 9.65746C26.0303 9.56906 25.5829 9.52486 25.0779 9.52486C24.5728 9.52486 24.0966 9.64273 23.6493 9.87845C23.202 10.0994 22.8051 10.4678 22.4588 10.9834C22.1125 11.4843 21.8383 12.1473 21.6363 12.9724C21.4343 13.7974 21.3333 14.8066 21.3333 16C21.3333 18.151 21.694 19.7716 22.4155 20.8619C23.137 21.9374 24.0966 22.4751 25.2943 22.4751C25.785 22.4751 26.2251 22.4088 26.6147 22.2762C27.0043 22.1289 27.3362 21.9595 27.6104 21.768L28 23.1381Z" fill="url(#paint3_linear_1667_2)"/>
<defs>
<linearGradient id="paint0_linear_1667_2" x1="6.81633" y1="8" x2="29.7158" y2="22.9209" gradientUnits="userSpaceOnUse">
<stop stop-color="#041986"/>
<stop offset="1" stop-color="#6368DA"/>
</linearGradient>
<linearGradient id="paint1_linear_1667_2" x1="6.81633" y1="8" x2="29.7158" y2="22.9209" gradientUnits="userSpaceOnUse">
<stop stop-color="#041986"/>
<stop offset="1" stop-color="#6368DA"/>
</linearGradient>
<linearGradient id="paint2_linear_1667_2" x1="6.81633" y1="8" x2="29.7158" y2="22.9209" gradientUnits="userSpaceOnUse">
<stop stop-color="#041986"/>
<stop offset="1" stop-color="#6368DA"/>
</linearGradient>
<linearGradient id="paint3_linear_1667_2" x1="6.81633" y1="8" x2="29.7158" y2="22.9209" gradientUnits="userSpaceOnUse">
<stop stop-color="#041986"/>
<stop offset="1" stop-color="#6368DA"/>
</linearGradient>
</defs>
</svg>
